<?xml version="1.0" standalone="no"?>
<!DOCTYPE svg PUBLIC "-//W3C//DTD SVG 20010904//EN"
 "http://www.w3.org/TR/2001/REC-SVG-20010904/DTD/svg10.dtd">
<svg version="1.0" xmlns="http://www.w3.org/2000/svg"
 width="20.000000pt" height="20.000000pt" viewBox="0 0 20.000000 20.000000"
 preserveAspectRatio="xMidYMid meet">

<g transform="translate(0.000000,20.000000) scale(0.100000,-0.100000)"
fill="#ff0000" stroke="none">
<path d="M95 179 c-4 -6 -3 -15 3 -21 6 -6 11 -4 15 6 7 18 -9 31 -18 15z"/>
<path d="M141 164 c0 -11 3 -14 6 -6 3 7 2 16 -1 19 -3 4 -6 -2 -5 -13z"/>
<path d="M26 163 c-12 -13 -6 -50 9 -50 8 0 15 9 15 19 0 29 15 21 30 -17 7
-19 22 -38 33 -41 28 -9 67 4 67 22 0 13 -3 14 -14 4 -23 -18 -58 -8 -75 24
-16 28 -53 50 -65 39z"/>
<path d="M51 89 c-10 -16 -15 -19 -21 -9 -5 8 -7 0 -6 -18 2 -53 50 -73 135
-56 27 6 31 11 30 38 0 26 -2 28 -9 11 -5 -11 -9 -14 -9 -7 -1 7 -14 12 -32
12 -25 0 -28 -2 -17 -13 7 -8 20 -17 28 -20 8 -4 1 -5 -16 -3 -17 3 -37 0 -44
-7 -9 -8 -11 -8 -7 -1 4 7 0 17 -9 24 -10 9 -13 22 -9 42 8 34 4 35 -14 7z"/>
</g>
</svg>
